# xmcd CD database file
#
# Track frame offsets:
#	150
#	15200
#	29075
#	45425
#	60825
#	75550
#	90825
#	105550
#	119800
#	140375
#	152375
#	165625
#	184950
#	201500
#	220800
#	254975
#	276100
#	292425
#
# Disc length: 4130 seconds
#
# Revision: 0
# Processed by: cddbd v1.5.1PL0 Copyright (c) Steve Scherf et al.
# Submitted via: CDex 1.51
#
DISCID=02102012
DTITLE=Victor Jazz History - Jazz and The Blues
DYEAR=1997
DGENRE=Jazz
TTITLE0=Alberta Hunter - Beale Street Blues
TTITLE1=Duke Ellington and his Orchestra - The Blues I Love To Sing
TTITLE2=King Oliver's Orchestra - West End Blues
TTITLE3=Henry Allen jr and his New York Orchestra - Biff'ly Blues
TTITLE4=Gene Gifford and His Orchestra - Nothin'But The Blues
TTITLE5=Benny Goodman Quartet - Vibraphone Blues
TTITLE6=Fats Walller and his Rythm - Fats Waller's Original E Flat Blues
TTITLE7=Earl Hines and His Orchestra - Stormy Monday Blues
TTITLE8=Duke Ellington an his Famous Orchestra - The Blues
TTITLE9=Oscar Peterson - The C-Jam Blues
TTITLE10=Count Basie and His Orchestra - Brand New Wagon
TTITLE11=Louis Amstrong and His All Stars - Back O'Town Blues
TTITLE12=Louis Amstrong and His All Stars - St. James Infirmary
TTITLE13=Jimmy Witherspoon with Jay McShann's Band - Confessin' The Blues
TTITLE14=Helen Hunters with Red Norvo and His Orchestra - I Sing The Blues
TTITLE15=Sonny Rollins Trio - Bluesongo
TTITLE16=Joe Williams with Jimmy Jondes and His Orchestra - Rocks In My Bed
TTITLE17=Marcus Roberts - Black and Tan Fantasy
EXTD=YEAR: 1997
EXTT0=
EXTT1=
EXTT2=
EXTT3=
EXTT4=
EXTT5=
EXTT6=
EXTT7=
EXTT8=
EXTT9=
EXTT10=
EXTT11=
EXTT12=
EXTT13=
EXTT14=
EXTT15=
EXTT16=
EXTT17=
PLAYORDER=
